<?xml version="1.0" encoding="UTF-8" standalone="no"?>
<!-- Created with Inkscape (http://www.inkscape.org/) -->

<svg
   xmlns:dc="http://purl.org/dc/elements/1.1/"
   xmlns:cc="http://creativecommons.org/ns#"
   xmlns:rdf="http://www.w3.org/1999/02/22-rdf-syntax-ns#"
   xmlns:svg="http://www.w3.org/2000/svg"
   xmlns="http://www.w3.org/2000/svg"
   version="1.1"
   width="212.59842"
   height="212.59842"
   id="svg2">
  <defs
     id="defs4" />
  <metadata
     id="metadata7">
    <rdf:RDF>
      <cc:Work
         rdf:about="">
        <dc:format>image/svg+xml</dc:format>
        <dc:type
           rdf:resource="http://purl.org/dc/dcmitype/StillImage" />
        <dc:title></dc:title>
      </cc:Work>
    </rdf:RDF>
  </metadata>
  <g
     transform="translate(22.15625,-409.43284)"
     id="layer1">
    <g
       id="g3056">
      <path
         d="m 69.673799,597.06071 0,-10.6273 c 2.9e-5,-1.89915 0.381934,-3.60976 1.145716,-5.1318 0.763837,-1.52202 1.800435,-2.81507 3.109799,-3.87917 1.309412,-1.07752 2.843852,-1.89915 4.603322,-2.46488 1.745871,-0.57916 3.607656,-0.86875 5.585364,-0.86878 2.059572,3e-5 3.975916,0.30309 5.749036,0.90919 1.773139,0.60614 3.314398,1.45471 4.623782,2.5457 1.295752,1.09103 2.318711,2.39082 3.068881,3.89937 0.736532,1.50858 1.104797,3.17203 1.104797,4.99037 l 0,10.6273 -28.990697,0 m 26.187786,-3.0104 0,-6.38446 c 3e-6,-1.50854 -0.259148,-2.90261 -0.777451,-4.18221 -0.531934,-1.27958 -1.295744,-2.38405 -2.291431,-3.31346 -1.009314,-0.92936 -2.236865,-1.6567 -3.682657,-2.18203 -1.459412,-0.52527 -3.109787,-0.78793 -4.951128,-0.78795 -2.004986,2e-5 -3.744017,0.26268 -5.217098,0.78795 -1.473042,0.52533 -2.686954,1.25941 -3.641739,2.20223 -0.954739,0.92941 -1.66399,2.03389 -2.127757,3.31346 -0.463717,1.2796 -0.695588,2.66694 -0.695614,4.16201 l 0,6.38446 23.384875,0"
         id="path3032"
         style="font-size:36.59614563px;font-style:normal;font-variant:normal;font-weight:normal;font-stretch:normal;line-height:125%;letter-spacing:0px;word-spacing:0px;fill:#800020;fill-opacity:1;stroke:none;font-family:Bangla Sangam MN;-inkscape-font-specification:Bangla Sangam MN" />
      <path
         d="m 77.918859,549.3891 c 0.722913,3e-5 1.432164,0.0875 2.127758,0.26266 0.681992,0.16165 1.329866,0.41083 1.943625,0.74754 0.613792,0.33676 1.186649,0.76104 1.718574,1.27286 0.518314,0.49838 0.961596,1.07756 1.329848,1.73754 0.190965,-0.7408 0.484214,-1.34691 0.879745,-1.81836 0.381918,-0.47141 0.83202,-0.84181 1.350308,-1.11122 0.518311,-0.26936 1.084348,-0.4512 1.698115,-0.5455 0.613785,-0.10773 1.23438,-0.16161 1.861787,-0.16163 l 4.39873,0 c 0.641058,2e-5 1.254834,-0.0808 1.841329,-0.24246 0.586498,-0.17508 1.118437,-0.39732 1.595818,-0.66673 l 0,3.31346 c -0.218232,0.13471 -0.470562,0.24246 -0.756991,0.32326 -0.286428,0.0808 -0.579676,0.14145 -0.879745,0.18184 -0.300067,0.0404 -0.593316,0.0674 -0.879747,0.0808 -0.286425,0.0135 -0.538756,0.0203 -0.756991,0.0202 l -4.603321,0 c -0.55921,10e-6 -1.111608,0.0943 -1.657195,0.28285 -0.54557,0.18859 -1.029771,0.49165 -1.452604,0.90919 -0.436452,0.41756 -0.784259,0.96306 -1.04342,1.63651 -0.272777,0.66002 -0.409171,1.46818 -0.409185,2.42449 l 0,8.6675 12.439199,0 0,3.0508 -28.990697,0 0,-11.7183 c 2.9e-5,-1.38733 0.245539,-2.61978 0.736532,-3.69733 0.491048,-1.07753 1.132102,-1.97998 1.923165,-2.70734 0.777476,-0.74079 1.65722,-1.29976 2.639238,-1.67693 0.982064,-0.37711 1.964106,-0.56569 2.946125,-0.56572 m 5.585364,17.31482 0,-8.6675 c 1.6e-5,-0.75428 -0.143199,-1.46815 -0.429643,-2.14163 -0.300052,-0.67345 -0.702417,-1.2661 -1.207094,-1.77796 -0.504642,-0.5118 -1.097959,-0.91589 -1.77995,-1.21223 -0.681955,-0.29631 -1.418486,-0.44446 -2.209595,-0.44448 -0.777428,2e-5 -1.4935,0.14144 -2.148216,0.42427 -0.654672,0.28288 -1.220709,0.67349 -1.698115,1.17184 -0.490996,0.48491 -0.8729,1.07082 -1.145716,1.75774 -0.272763,0.67349 -0.409158,1.41429 -0.409184,2.22245 l 0,8.6675 11.027513,0"
         id="path3034"
         style="font-size:36.59614563px;font-style:normal;font-variant:normal;font-weight:normal;font-stretch:normal;line-height:125%;letter-spacing:0px;word-spacing:0px;fill:#800020;fill-opacity:1;stroke:none;font-family:Bangla Sangam MN;-inkscape-font-specification:Bangla Sangam MN" />
      <path
         d="m 69.673799,540.09496 28.990697,0 0,3.0508 -28.990697,0 0,-3.0508"
         id="path3036"
         style="font-size:36.59614563px;font-style:normal;font-variant:normal;font-weight:normal;font-stretch:normal;line-height:125%;letter-spacing:0px;word-spacing:0px;fill:#800020;fill-opacity:1;stroke:none;font-family:Bangla Sangam MN;-inkscape-font-specification:Bangla Sangam MN" />
      <path
         d="m 69.673799,530.1385 25.04207,-14.56706 -25.04207,0 0,-3.05081 28.990697,0 0,4.10141 -25.062529,14.56707 25.062529,0 0,3.0508 -28.990697,0 0,-4.10141"
         id="path3038"
         style="font-size:36.59614563px;font-style:normal;font-variant:normal;font-weight:normal;font-stretch:normal;line-height:125%;letter-spacing:0px;word-spacing:0px;fill:#800020;fill-opacity:1;stroke:none;font-family:Bangla Sangam MN;-inkscape-font-specification:Bangla Sangam MN" />
      <path
         d="m 69.673799,505.19228 14.832925,0 -14.832925,-14.60748 0,-4.02059 11.395779,11.33443 17.594918,-12.00116 0,3.85896 -15.385324,10.26361 5.15572,5.17223 10.229604,0 0,3.0508 -28.990697,0 0,-3.0508"
         id="path3040"
         style="font-size:36.59614563px;font-style:normal;font-variant:normal;font-weight:normal;font-stretch:normal;line-height:125%;letter-spacing:0px;word-spacing:0px;fill:#800020;fill-opacity:1;stroke:none;font-family:Bangla Sangam MN;-inkscape-font-specification:Bangla Sangam MN" />
      <path
         d="m 69.673799,477.23376 28.990697,0 0,3.0508 -28.990697,0 0,-3.0508"
         id="path3042"
         style="font-size:36.59614563px;font-style:normal;font-variant:normal;font-weight:normal;font-stretch:normal;line-height:125%;letter-spacing:0px;word-spacing:0px;fill:#800020;fill-opacity:1;stroke:none;font-family:Bangla Sangam MN;-inkscape-font-specification:Bangla Sangam MN" />
      <path
         d="m 69.673799,452.26574 2.802911,0 0,16.06216 9.799961,0 0,-15.11257 2.802912,0 0,15.11257 10.782002,0 0,-16.7693 2.802911,0 0,19.82011 -28.990697,0 0,-19.11297"
         id="path3044"
         style="font-size:36.59614563px;font-style:normal;font-variant:normal;font-weight:normal;font-stretch:normal;line-height:125%;letter-spacing:0px;word-spacing:0px;fill:#800020;fill-opacity:1;stroke:none;font-family:Bangla Sangam MN;-inkscape-font-specification:Bangla Sangam MN" />
      <path
         d="m 77.918859,426.86303 c 0.722913,3e-5 1.432164,0.0876 2.127758,0.26265 0.681992,0.16166 1.329866,0.41084 1.943625,0.74755 0.613792,0.33676 1.186649,0.76104 1.718574,1.27285 0.518314,0.49838 0.961596,1.07757 1.329848,1.73754 0.190965,-0.74079 0.484214,-1.34691 0.879745,-1.81836 0.381918,-0.4714 0.83202,-0.84181 1.350308,-1.11121 0.518311,-0.26937 1.084348,-0.4512 1.698115,-0.54551 0.613785,-0.10774 1.23438,-0.16161 1.861787,-0.16163 l 4.39873,0 c 0.641058,2e-5 1.254834,-0.0808 1.841329,-0.24245 0.586498,-0.17508 1.118437,-0.39732 1.595818,-0.66673 l 0,3.31345 c -0.218232,0.13471 -0.470562,0.24247 -0.756991,0.32327 -0.286428,0.0808 -0.579676,0.14144 -0.879745,0.18183 -0.300067,0.0405 -0.593316,0.0674 -0.879747,0.0808 -0.286425,0.0135 -0.538756,0.0203 -0.756991,0.0202 l -4.603321,0 c -0.55921,2e-5 -1.111608,0.0943 -1.657195,0.28286 -0.54557,0.18859 -1.029771,0.49164 -1.452604,0.90917 -0.436452,0.41757 -0.784259,0.96308 -1.04342,1.63653 -0.272777,0.66001 -0.409171,1.46817 -0.409185,2.42447 l 0,8.66751 12.439199,0 0,3.0508 -28.990697,0 0,-11.71831 c 2.9e-5,-1.38732 0.245539,-2.61976 0.736532,-3.69732 0.491048,-1.07753 1.132102,-1.97997 1.923165,-2.70733 0.777476,-0.7408 1.65722,-1.29978 2.639238,-1.67693 0.982064,-0.37713 1.964106,-0.56569 2.946125,-0.56572 m 5.585364,17.31481 0,-8.66751 c 1.6e-5,-0.75426 -0.143199,-1.46814 -0.429643,-2.14161 -0.300052,-0.67345 -0.702417,-1.2661 -1.207094,-1.77796 -0.504642,-0.51182 -1.097959,-0.91589 -1.77995,-1.21224 -0.681955,-0.2963 -1.418486,-0.44447 -2.209595,-0.44449 -0.777428,2e-5 -1.4935,0.14145 -2.148216,0.42429 -0.654672,0.28288 -1.220709,0.67348 -1.698115,1.17183 -0.490996,0.48492 -0.8729,1.07083 -1.145716,1.75774 -0.272763,0.67348 -0.409158,1.4143 -0.409184,2.22244 l 0,8.66751 11.027513,0"
         id="path3046"
         style="font-size:36.59614563px;font-style:normal;font-variant:normal;font-weight:normal;font-stretch:normal;line-height:125%;letter-spacing:0px;word-spacing:0px;fill:#800020;fill-opacity:1;stroke:none;font-family:Bangla Sangam MN;-inkscape-font-specification:Bangla Sangam MN" />
      <path
         d="m 60.702499,425.48013 0,63.0676 -24.200803,17.94165 0,78.29082 20.97403,21.20376 41.107885,0"
         id="path2990"
         style="fill:none;stroke:#800020;stroke-width:3.10389209;stroke-linecap:butt;stroke-linejoin:miter;stroke-miterlimit:4;stroke-opacity:1;stroke-dasharray:none" />
    </g>
  </g>
</svg>
